<mxfile host="app.diagrams.net" agent="Mozilla/5.0 (X11; Linux x86_64) AppleWebKit/537.36 (KHTML, like Gecko) Chrome/129.0.0.0 Safari/537.36" version="24.7.17">
  <diagram name="Page-1" id="2YBvvXClWsGukQMizWep">
    <mxGraphModel dx="714" dy="746" grid="1" gridSize="10" guides="1" tooltips="1" connect="1" arrows="1" fold="1" page="1" pageScale="1" pageWidth="850" pageHeight="1100" math="0" shadow="0">
      <root>
        <mxCell id="0" />
        <mxCell id="1" parent="0" />
        <mxCell id="aM9ryv3xv72pqoxQDRHE-1" value=":P1" style="shape=umlLifeline;perimeter=lifelinePerimeter;whiteSpace=wrap;html=1;container=0;dropTarget=0;collapsible=0;recursiveResize=0;outlineConnect=0;portConstraint=eastwest;newEdgeStyle={&quot;edgeStyle&quot;:&quot;elbowEdgeStyle&quot;,&quot;elbow&quot;:&quot;vertical&quot;,&quot;curved&quot;:0,&quot;rounded&quot;:0};" parent="1" vertex="1">
          <mxGeometry x="40" y="40" width="100" height="590" as="geometry" />
        </mxCell>
        <mxCell id="aM9ryv3xv72pqoxQDRHE-2" value="" style="html=1;points=[];perimeter=orthogonalPerimeter;outlineConnect=0;targetShapes=umlLifeline;portConstraint=eastwest;newEdgeStyle={&quot;edgeStyle&quot;:&quot;elbowEdgeStyle&quot;,&quot;elbow&quot;:&quot;vertical&quot;,&quot;curved&quot;:0,&quot;rounded&quot;:0};" parent="aM9ryv3xv72pqoxQDRHE-1" vertex="1">
          <mxGeometry x="45" y="70" width="10" height="450" as="geometry" />
        </mxCell>
        <mxCell id="aM9ryv3xv72pqoxQDRHE-5" value=":P2" style="shape=umlLifeline;perimeter=lifelinePerimeter;whiteSpace=wrap;html=1;container=0;dropTarget=0;collapsible=0;recursiveResize=0;outlineConnect=0;portConstraint=eastwest;newEdgeStyle={&quot;edgeStyle&quot;:&quot;elbowEdgeStyle&quot;,&quot;elbow&quot;:&quot;vertical&quot;,&quot;curved&quot;:0,&quot;rounded&quot;:0};" parent="1" vertex="1">
          <mxGeometry x="220" y="40" width="100" height="590" as="geometry" />
        </mxCell>
        <mxCell id="aM9ryv3xv72pqoxQDRHE-6" value="" style="html=1;points=[];perimeter=orthogonalPerimeter;outlineConnect=0;targetShapes=umlLifeline;portConstraint=eastwest;newEdgeStyle={&quot;edgeStyle&quot;:&quot;elbowEdgeStyle&quot;,&quot;elbow&quot;:&quot;vertical&quot;,&quot;curved&quot;:0,&quot;rounded&quot;:0};" parent="aM9ryv3xv72pqoxQDRHE-5" vertex="1">
          <mxGeometry x="45" y="80" width="10" height="440" as="geometry" />
        </mxCell>
        <mxCell id="ePaxuMII9yY22snUB-n7-1" value=":P3" style="shape=umlLifeline;perimeter=lifelinePerimeter;whiteSpace=wrap;html=1;container=0;dropTarget=0;collapsible=0;recursiveResize=0;outlineConnect=0;portConstraint=eastwest;newEdgeStyle={&quot;edgeStyle&quot;:&quot;elbowEdgeStyle&quot;,&quot;elbow&quot;:&quot;vertical&quot;,&quot;curved&quot;:0,&quot;rounded&quot;:0};" parent="1" vertex="1">
          <mxGeometry x="400" y="40" width="100" height="600" as="geometry" />
        </mxCell>
        <mxCell id="ePaxuMII9yY22snUB-n7-2" value="" style="html=1;points=[];perimeter=orthogonalPerimeter;outlineConnect=0;targetShapes=umlLifeline;portConstraint=eastwest;newEdgeStyle={&quot;edgeStyle&quot;:&quot;elbowEdgeStyle&quot;,&quot;elbow&quot;:&quot;vertical&quot;,&quot;curved&quot;:0,&quot;rounded&quot;:0};" parent="ePaxuMII9yY22snUB-n7-1" vertex="1">
          <mxGeometry x="45" y="80" width="10" height="440" as="geometry" />
        </mxCell>
        <mxCell id="ePaxuMII9yY22snUB-n7-3" value=":4P" style="shape=umlLifeline;perimeter=lifelinePerimeter;whiteSpace=wrap;html=1;container=0;dropTarget=0;collapsible=0;recursiveResize=0;outlineConnect=0;portConstraint=eastwest;newEdgeStyle={&quot;edgeStyle&quot;:&quot;elbowEdgeStyle&quot;,&quot;elbow&quot;:&quot;vertical&quot;,&quot;curved&quot;:0,&quot;rounded&quot;:0};" parent="1" vertex="1">
          <mxGeometry x="580" y="40" width="100" height="600" as="geometry" />
        </mxCell>
        <mxCell id="ePaxuMII9yY22snUB-n7-4" value="" style="html=1;points=[];perimeter=orthogonalPerimeter;outlineConnect=0;targetShapes=umlLifeline;portConstraint=eastwest;newEdgeStyle={&quot;edgeStyle&quot;:&quot;elbowEdgeStyle&quot;,&quot;elbow&quot;:&quot;vertical&quot;,&quot;curved&quot;:0,&quot;rounded&quot;:0};" parent="ePaxuMII9yY22snUB-n7-3" vertex="1">
          <mxGeometry x="45" y="80" width="10" height="430" as="geometry" />
        </mxCell>
        <mxCell id="ePaxuMII9yY22snUB-n7-8" value="" style="endArrow=classic;html=1;rounded=0;" parent="1" edge="1">
          <mxGeometry width="50" height="50" relative="1" as="geometry">
            <mxPoint x="90" y="110" as="sourcePoint" />
            <mxPoint x="267" y="149" as="targetPoint" />
          </mxGeometry>
        </mxCell>
        <mxCell id="ePaxuMII9yY22snUB-n7-9" value="" style="endArrow=classic;html=1;rounded=0;" parent="1" edge="1">
          <mxGeometry width="50" height="50" relative="1" as="geometry">
            <mxPoint x="270" y="120" as="sourcePoint" />
            <mxPoint x="447" y="159" as="targetPoint" />
          </mxGeometry>
        </mxCell>
        <mxCell id="ePaxuMII9yY22snUB-n7-10" value="" style="endArrow=classic;html=1;rounded=0;" parent="1" edge="1">
          <mxGeometry width="50" height="50" relative="1" as="geometry">
            <mxPoint x="450" y="120" as="sourcePoint" />
            <mxPoint x="627" y="159" as="targetPoint" />
          </mxGeometry>
        </mxCell>
        <mxCell id="ePaxuMII9yY22snUB-n7-11" value="" style="endArrow=classic;html=1;rounded=0;" parent="1" edge="1">
          <mxGeometry width="50" height="50" relative="1" as="geometry">
            <mxPoint x="271" y="160" as="sourcePoint" />
            <mxPoint x="629" y="237" as="targetPoint" />
          </mxGeometry>
        </mxCell>
        <mxCell id="ePaxuMII9yY22snUB-n7-12" value="" style="endArrow=classic;html=1;rounded=0;" parent="1" edge="1">
          <mxGeometry width="50" height="50" relative="1" as="geometry">
            <mxPoint x="90" y="151.5" as="sourcePoint" />
            <mxPoint x="630" y="268" as="targetPoint" />
          </mxGeometry>
        </mxCell>
        <mxCell id="ePaxuMII9yY22snUB-n7-14" value="" style="endArrow=classic;html=1;rounded=0;" parent="1" edge="1">
          <mxGeometry width="50" height="50" relative="1" as="geometry">
            <mxPoint x="91.5" y="280" as="sourcePoint" />
            <mxPoint x="448.5" y="358.25" as="targetPoint" />
          </mxGeometry>
        </mxCell>
        <mxCell id="ePaxuMII9yY22snUB-n7-15" value="" style="endArrow=classic;html=1;rounded=0;" parent="1" edge="1">
          <mxGeometry width="50" height="50" relative="1" as="geometry">
            <mxPoint x="450" y="310" as="sourcePoint" />
            <mxPoint x="272" y="363" as="targetPoint" />
          </mxGeometry>
        </mxCell>
        <mxCell id="ePaxuMII9yY22snUB-n7-16" value="" style="endArrow=classic;html=1;rounded=0;" parent="1" edge="1">
          <mxGeometry width="50" height="50" relative="1" as="geometry">
            <mxPoint x="268" y="200" as="sourcePoint" />
            <mxPoint x="90" y="253" as="targetPoint" />
          </mxGeometry>
        </mxCell>
        <mxCell id="ePaxuMII9yY22snUB-n7-17" value="" style="endArrow=classic;html=1;rounded=0;" parent="1" edge="1">
          <mxGeometry width="50" height="50" relative="1" as="geometry">
            <mxPoint x="448" y="240" as="sourcePoint" />
            <mxPoint x="93" y="342" as="targetPoint" />
          </mxGeometry>
        </mxCell>
        <mxCell id="ePaxuMII9yY22snUB-n7-23" value="" style="endArrow=classic;html=1;rounded=0;" parent="1" edge="1">
          <mxGeometry width="50" height="50" relative="1" as="geometry">
            <mxPoint x="629" y="280" as="sourcePoint" />
            <mxPoint x="450" y="338" as="targetPoint" />
          </mxGeometry>
        </mxCell>
        <mxCell id="ePaxuMII9yY22snUB-n7-26" value="" style="endArrow=classic;html=1;rounded=0;" parent="1" edge="1">
          <mxGeometry width="50" height="50" relative="1" as="geometry">
            <mxPoint x="629" y="336" as="sourcePoint" />
            <mxPoint x="95" y="458" as="targetPoint" />
          </mxGeometry>
        </mxCell>
        <mxCell id="ePaxuMII9yY22snUB-n7-28" value="" style="endArrow=classic;html=1;rounded=0;" parent="1" edge="1">
          <mxGeometry width="50" height="50" relative="1" as="geometry">
            <mxPoint x="624" y="390" as="sourcePoint" />
            <mxPoint x="268" y="473" as="targetPoint" />
          </mxGeometry>
        </mxCell>
        <mxCell id="ePaxuMII9yY22snUB-n7-30" value="" style="endArrow=none;html=1;rounded=0;" parent="1" edge="1">
          <mxGeometry width="50" height="50" relative="1" as="geometry">
            <mxPoint x="77.66870967741933" y="460" as="sourcePoint" />
            <mxPoint x="102.33" y="460" as="targetPoint" />
          </mxGeometry>
        </mxCell>
        <mxCell id="ePaxuMII9yY22snUB-n7-31" value="" style="endArrow=none;html=1;rounded=0;" parent="1" edge="1">
          <mxGeometry width="50" height="50" relative="1" as="geometry">
            <mxPoint x="257.6687096774193" y="476" as="sourcePoint" />
            <mxPoint x="282.33" y="476" as="targetPoint" />
          </mxGeometry>
        </mxCell>
        <mxCell id="ePaxuMII9yY22snUB-n7-32" value="" style="endArrow=none;html=1;rounded=0;" parent="1" edge="1">
          <mxGeometry width="50" height="50" relative="1" as="geometry">
            <mxPoint x="437.9987096774193" y="362" as="sourcePoint" />
            <mxPoint x="462.65999999999997" y="362" as="targetPoint" />
          </mxGeometry>
        </mxCell>
        <mxCell id="ePaxuMII9yY22snUB-n7-35" value="" style="endArrow=none;html=1;rounded=0;" parent="1" edge="1">
          <mxGeometry width="50" height="50" relative="1" as="geometry">
            <mxPoint x="617.6687096774193" y="410" as="sourcePoint" />
            <mxPoint x="642.3299999999999" y="410" as="targetPoint" />
          </mxGeometry>
        </mxCell>
        <mxCell id="ePaxuMII9yY22snUB-n7-36" value="&lt;font style=&quot;font-size: 7px;&quot;&gt;Llega a la barrera&lt;/font&gt;" style="text;html=1;align=center;verticalAlign=middle;whiteSpace=wrap;rounded=0;" parent="1" vertex="1">
          <mxGeometry x="81" y="452" width="85" height="25" as="geometry" />
        </mxCell>
        <mxCell id="ePaxuMII9yY22snUB-n7-37" value="&lt;font style=&quot;font-size: 7px;&quot;&gt;Llega a la barrera&lt;/font&gt;" style="text;html=1;align=center;verticalAlign=middle;whiteSpace=wrap;rounded=0;" parent="1" vertex="1">
          <mxGeometry x="275" y="464" width="60" height="30" as="geometry" />
        </mxCell>
        <mxCell id="ePaxuMII9yY22snUB-n7-38" value="&lt;font style=&quot;font-size: 7px;&quot;&gt;Llega a la barrera&lt;/font&gt;" style="text;html=1;align=center;verticalAlign=middle;whiteSpace=wrap;rounded=0;" parent="1" vertex="1">
          <mxGeometry x="455" y="340" width="60" height="30" as="geometry" />
        </mxCell>
        <mxCell id="ePaxuMII9yY22snUB-n7-40" value="&lt;font style=&quot;font-size: 7px;&quot;&gt;Llega a la barrera&lt;/font&gt;" style="text;html=1;align=center;verticalAlign=middle;whiteSpace=wrap;rounded=0;" parent="1" vertex="1">
          <mxGeometry x="635" y="399" width="60" height="30" as="geometry" />
        </mxCell>
        <mxCell id="ePaxuMII9yY22snUB-n7-43" value="Notifico" style="text;html=1;align=center;verticalAlign=middle;whiteSpace=wrap;rounded=0;rotation=15;" parent="1" vertex="1">
          <mxGeometry x="154" y="105" width="60" height="30" as="geometry" />
        </mxCell>
        <mxCell id="ePaxuMII9yY22snUB-n7-44" value="Notifico" style="text;html=1;align=center;verticalAlign=middle;whiteSpace=wrap;rounded=0;rotation=15;" parent="1" vertex="1">
          <mxGeometry x="332" y="114" width="60" height="30" as="geometry" />
        </mxCell>
        <mxCell id="ePaxuMII9yY22snUB-n7-47" value="Notifico" style="text;html=1;align=center;verticalAlign=middle;whiteSpace=wrap;rounded=0;rotation=15;" parent="1" vertex="1">
          <mxGeometry x="510" y="105" width="60" height="30" as="geometry" />
        </mxCell>
        <mxCell id="ePaxuMII9yY22snUB-n7-48" value="Notifico" style="text;html=1;align=center;verticalAlign=middle;whiteSpace=wrap;rounded=0;rotation=15;" parent="1" vertex="1">
          <mxGeometry x="335" y="152" width="60" height="30" as="geometry" />
        </mxCell>
        <mxCell id="ePaxuMII9yY22snUB-n7-49" value="Notifico" style="text;html=1;align=center;verticalAlign=middle;whiteSpace=wrap;rounded=0;rotation=15;" parent="1" vertex="1">
          <mxGeometry x="161" y="147" width="60" height="30" as="geometry" />
        </mxCell>
        <mxCell id="ePaxuMII9yY22snUB-n7-50" value="Notifico" style="text;html=1;align=center;verticalAlign=middle;whiteSpace=wrap;rounded=0;rotation=15;" parent="1" vertex="1">
          <mxGeometry x="145" y="274" width="60" height="30" as="geometry" />
        </mxCell>
        <mxCell id="ePaxuMII9yY22snUB-n7-51" value="Notifico" style="text;html=1;align=center;verticalAlign=middle;whiteSpace=wrap;rounded=0;rotation=-15;" parent="1" vertex="1">
          <mxGeometry x="330" y="240" width="60" height="30" as="geometry" />
        </mxCell>
        <mxCell id="ePaxuMII9yY22snUB-n7-52" value="Notifico" style="text;html=1;align=center;verticalAlign=middle;whiteSpace=wrap;rounded=0;rotation=-15;" parent="1" vertex="1">
          <mxGeometry x="160" y="200" width="60" height="30" as="geometry" />
        </mxCell>
        <mxCell id="ePaxuMII9yY22snUB-n7-53" value="Notifico" style="text;html=1;align=center;verticalAlign=middle;whiteSpace=wrap;rounded=0;rotation=-15;" parent="1" vertex="1">
          <mxGeometry x="360" y="300" width="60" height="30" as="geometry" />
        </mxCell>
        <mxCell id="ePaxuMII9yY22snUB-n7-55" value="Notifico" style="text;html=1;align=center;verticalAlign=middle;whiteSpace=wrap;rounded=0;rotation=-15;" parent="1" vertex="1">
          <mxGeometry x="530" y="330" width="60" height="30" as="geometry" />
        </mxCell>
        <mxCell id="ePaxuMII9yY22snUB-n7-56" value="Notifico" style="text;html=1;align=center;verticalAlign=middle;whiteSpace=wrap;rounded=0;rotation=-15;" parent="1" vertex="1">
          <mxGeometry x="523" y="381" width="60" height="30" as="geometry" />
        </mxCell>
        <mxCell id="ePaxuMII9yY22snUB-n7-57" value="Notifico" style="text;html=1;align=center;verticalAlign=middle;whiteSpace=wrap;rounded=0;rotation=-15;" parent="1" vertex="1">
          <mxGeometry x="550" y="270" width="60" height="30" as="geometry" />
        </mxCell>
      </root>
    </mxGraphModel>
  </diagram>
</mxfile>
